<?xml version="1.0" standalone="no"?>
<!DOCTYPE svg PUBLIC "-//W3C//DTD SVG 20010904//EN"
 "http://www.w3.org/TR/2001/REC-SVG-20010904/DTD/svg10.dtd">
<svg version="1.0" xmlns="http://www.w3.org/2000/svg"
  width="31.88" height="32" viewBox="0 0 960.000000 960.000000"
 preserveAspectRatio="xMidYMid meet">
<metadata>
Created by potrace 1.16, written by Peter Selinger 2001-2019
</metadata>
<g transform="translate(0.000000,960.000000) scale(0.100000,-0.100000)"
fill="#000000" stroke="none">
<path d="M4710 7909 c0 -4 -11 -10 -25 -13 -37 -9 -132 -108 -155 -162 -32
-74 -29 -186 6 -259 92 -188 342 -234 492 -91 61 58 91 125 93 211 4 113 -20
176 -94 246 -57 55 -83 64 -205 69 -61 3 -112 2 -112 -1z"/>
<path d="M1672 7826 c-34 -7 -66 -17 -71 -22 -7 -8 -51 -131 -83 -232 -5 -19
-12 -59 -15 -90 -2 -31 -8 -58 -13 -60 -7 -3 -7 -23 5 -192 8 -124 15 -174 26
-184 5 -6 9 -19 9 -31 0 -32 53 -186 78 -225 12 -19 22 -38 22 -43 0 -11 105
-167 137 -204 33 -38 46 -40 71 -15 120 124 153 307 84 462 -51 116 -77 332
-51 435 10 38 15 44 33 41 86 -17 142 -30 151 -38 5 -4 21 -8 36 -8 15 0 31
-4 34 -10 3 -5 14 -10 24 -10 18 0 107 -32 143 -51 10 -5 25 -9 34 -9 8 0 50
-12 92 -26 180 -60 414 -92 441 -60 8 9 11 65 9 177 l-3 163 -130 22 c-92 15
-182 40 -310 84 -279 97 -446 137 -580 138 -60 0 -138 -5 -173 -12z"/>
<path d="M7655 7819 c-99 -18 -178 -41 -378 -108 -283 -95 -345 -111 -437
-111 -27 0 -51 -3 -54 -8 -2 -4 -7 -79 -11 -167 -7 -138 -5 -162 8 -173 12
-10 37 -11 124 -2 59 7 116 16 125 21 10 5 25 9 34 9 15 0 327 102 369 120 45
20 214 66 277 75 45 7 48 6 58 -20 15 -40 12 -200 -6 -285 -8 -41 -31 -122
-51 -178 -33 -98 -35 -110 -30 -195 3 -63 12 -107 26 -139 29 -63 97 -148 119
-147 42 1 234 320 249 415 3 19 9 34 13 34 12 0 40 161 47 265 3 56 1 118 -5
148 -6 29 -16 90 -23 137 -12 83 -58 235 -84 276 -24 37 -241 56 -370 33z"/>
<path d="M3847 7634 c-16 -48 -24 -184 -14 -214 45 -129 62 -152 210 -273 288
-239 458 -469 573 -779 16 -43 34 -80 40 -82 6 -2 44 5 84 17 l72 21 78 -21
c92 -24 100 -21 120 47 24 79 110 270 123 270 4 0 7 5 7 10 0 14 94 154 144
215 84 102 208 221 361 345 37 30 82 78 100 106 63 98 82 228 47 329 -26 77
-39 75 -217 -36 -39 -24 -77 -50 -85 -57 -8 -7 -33 -26 -55 -42 -154 -117
-334 -289 -435 -416 -37 -47 -141 -196 -154 -223 -9 -16 -20 -32 -25 -35 -4
-3 -26 22 -47 57 -43 70 -88 134 -136 191 -18 21 -37 46 -42 55 -14 24 -234
241 -291 286 -27 22 -52 42 -55 45 -3 3 -39 30 -80 61 -111 82 -240 160 -276
166 -30 5 -32 3 -47 -43z"/>
<path d="M3232 7283 c-10 -25 -9 -1121 1 -1158 6 -21 129 -149 403 -420 216
-214 433 -427 480 -471 l86 -82 -7 -478 c-4 -264 -9 -482 -12 -486 -2 -5 -469
-9 -1036 -9 -568 -1 -1045 -4 -1062 -8 l-30 -6 -5 -160 c-3 -88 -2 -165 2
-171 6 -8 177 -12 580 -13 315 -1 575 -5 578 -7 3 -3 -2 -11 -11 -17 -16 -12
-60 -62 -159 -178 -106 -124 -92 -116 -417 -223 -164 -54 -307 -102 -318 -107
-11 -4 -44 -16 -73 -25 -30 -9 -56 -23 -59 -30 -3 -8 2 -35 11 -61 8 -27 30
-93 47 -148 17 -55 35 -104 40 -109 8 -9 837 260 849 274 3 4 12 11 21 16 9 5
84 86 167 179 166 187 282 285 392 332 8 3 40 17 69 30 30 13 109 37 175 54
114 28 131 29 286 27 l164 -3 31 -45 c58 -87 43 -246 -30 -326 -64 -70 -131
-142 -194 -210 -36 -38 -91 -97 -121 -129 -43 -46 -66 -62 -110 -76 -59 -19
-329 -111 -445 -152 -38 -13 -104 -35 -145 -47 -41 -13 -79 -26 -85 -29 -5 -3
-147 -51 -314 -108 -168 -56 -309 -107 -315 -113 -12 -12 19 -77 57 -121 28
-31 101 -81 146 -99 65 -26 185 -18 286 20 52 19 123 43 150 51 17 4 82 26
145 48 63 22 120 41 126 41 6 0 18 -19 27 -42 9 -24 39 -105 67 -182 57 -156
80 -204 106 -228 11 -9 100 -61 199 -115 191 -106 208 -115 326 -187 42 -25
81 -46 87 -46 14 0 40 38 97 145 26 50 54 99 61 110 30 43 27 45 -231 185
-240 130 -283 157 -290 183 -3 12 -10 31 -15 42 -34 79 -60 180 -54 210 9 48
37 69 144 105 127 42 123 39 264 191 146 156 201 209 217 209 9 0 26 -8 38
-17 21 -18 21 -26 24 -353 l2 -335 173 -3 c94 -1 172 1 173 5 0 5 2 154 4 333
2 179 4 328 4 332 2 15 33 38 51 38 11 0 55 -37 102 -87 46 -48 124 -129 173
-180 l90 -93 105 -35 c115 -39 160 -73 160 -123 0 -15 -18 -82 -41 -149 -39
-115 -43 -123 -78 -139 -20 -9 -52 -27 -71 -39 -19 -12 -64 -37 -100 -55 -36
-19 -76 -41 -90 -50 -14 -9 -65 -38 -115 -64 -49 -26 -96 -54 -104 -61 -14
-14 -9 -25 82 -185 11 -19 29 -52 39 -73 24 -48 39 -54 80 -29 18 11 58 33 88
50 30 16 123 67 205 112 83 46 175 96 205 113 103 56 114 75 217 377 19 58 41
111 48 119 11 11 26 9 96 -14 46 -15 93 -31 104 -36 11 -4 90 -32 175 -60 122
-42 169 -53 220 -53 67 -1 160 20 160 35 0 5 6 9 13 9 32 1 147 134 147 170 0
19 -3 21 -175 80 -66 23 -138 50 -160 60 -22 10 -69 26 -105 36 -36 10 -94 29
-130 44 -36 14 -112 41 -170 59 -58 19 -114 38 -125 42 -11 5 -126 45 -255 89
l-235 80 -49 52 c-27 29 -97 105 -156 168 -202 216 -216 235 -226 324 -7 62
12 138 49 188 l22 30 205 -5 c213 -5 253 -12 388 -60 91 -33 119 -48 208 -108
94 -63 145 -111 257 -238 50 -58 119 -133 152 -166 56 -57 67 -63 165 -94 58
-18 114 -37 125 -42 11 -4 65 -22 120 -40 55 -17 109 -35 120 -39 127 -46 353
-112 367 -108 18 6 123 290 115 311 -2 6 -31 20 -63 31 -33 10 -68 22 -79 26
-11 5 -65 23 -120 40 -55 18 -109 36 -120 40 -11 4 -100 34 -198 66 l-179 59
-56 60 c-56 59 -152 167 -206 233 -16 17 -24 32 -19 32 4 1 262 1 573 1 311
-1 571 3 578 8 10 6 12 42 6 174 l-7 167 -571 1 c-1144 1 -1537 6 -1549 18 -9
9 -13 141 -15 493 l-4 481 449 446 c247 245 459 453 471 461 49 33 51 57 51
652 0 305 -4 560 -9 567 -15 25 -127 -5 -197 -51 -42 -28 -100 -92 -123 -138
-31 -59 -32 -72 -55 -650 -6 -158 -16 -210 -39 -210 -6 0 -25 -14 -43 -30 -18
-17 -36 -30 -42 -30 -5 0 -11 -4 -13 -8 -1 -5 -38 -36 -82 -71 -43 -34 -99
-83 -125 -108 -25 -26 -65 -60 -87 -77 -23 -17 -69 -53 -104 -80 l-62 -48 -44
43 c-24 24 -44 48 -44 54 0 13 116 152 180 216 102 102 142 156 166 225 20 58
22 164 4 219 -19 60 -69 135 -90 135 -21 0 -635 -605 -644 -635 -3 -11 -7
-470 -8 -1021 l-3 -1001 -62 -61 c-34 -34 -63 -62 -66 -62 -3 0 -34 29 -70 64
l-66 63 0 999 c1 550 0 1005 0 1013 -1 7 -142 155 -313 327 -225 225 -319 314
-335 314 -13 0 -23 -4 -23 -8 0 -5 -9 -19 -20 -32 -57 -66 -78 -223 -41 -319
15 -40 97 -162 121 -181 6 -4 132 -155 196 -233 8 -9 14 -21 14 -25 0 -11 -64
-72 -75 -72 -7 0 -112 76 -125 91 -3 3 -54 44 -115 92 -60 48 -121 96 -135
107 -14 12 -61 49 -105 83 -44 34 -85 66 -92 73 -7 7 -14 66 -19 155 -3 79 -8
147 -10 151 -2 3 -7 100 -10 215 -3 129 -11 227 -19 258 -38 135 -147 229
-303 260 -25 5 -34 3 -40 -12z"/>
<path d="M2559 7052 c-22 -25 -29 -47 -44 -133 -11 -64 -11 -90 -1 -152 27
-153 121 -294 245 -366 96 -57 236 -91 260 -65 20 22 43 115 47 189 13 266
-181 499 -451 540 -32 5 -43 2 -56 -13z"/>
<path d="M6970 7050 c-8 -5 -24 -10 -35 -10 -26 0 -138 -53 -162 -77 -10 -10
-29 -27 -43 -38 -33 -27 -83 -92 -102 -135 -44 -97 -50 -120 -55 -215 -4 -78
-2 -114 12 -160 24 -85 34 -93 98 -84 181 26 344 158 407 329 28 76 41 180 31
236 -5 27 -9 56 -9 64 0 8 -7 33 -15 55 -14 38 -17 40 -64 43 -26 1 -55 -2
-63 -8z"/>
<path d="M2145 6290 c-11 -5 -33 -9 -48 -9 -15 -1 -42 -8 -59 -17 l-31 -16 6
-102 c3 -55 10 -114 15 -131 5 -16 16 -50 23 -75 17 -56 89 -189 126 -232 114
-131 227 -207 383 -258 88 -29 105 -31 233 -31 76 1 146 5 157 11 10 5 29 10
42 10 43 1 58 22 58 81 0 169 -68 364 -165 477 -47 55 -147 152 -157 152 -4 0
-13 6 -20 13 -38 34 -160 92 -228 107 -30 6 -69 16 -86 21 -38 11 -222 11
-249 -1z"/>
<path d="M7225 6288 c-93 -22 -123 -32 -185 -61 -137 -63 -294 -205 -345 -313
-64 -135 -103 -296 -97 -396 4 -66 0 -63 126 -83 220 -36 361 -6 531 112 102
70 180 148 233 229 17 27 36 54 42 61 41 49 77 193 87 354 l4 65 -38 12 c-113
33 -266 42 -358 20z"/>
<path d="M3370 5366 c-41 -12 -94 -32 -117 -44 -50 -26 -53 -40 -25 -124 55
-166 209 -311 387 -363 63 -19 233 -19 301 -1 49 13 138 59 149 77 3 5 1 28
-6 51 -6 24 -13 53 -14 66 -8 62 -128 208 -220 267 -143 90 -306 116 -455 71z"/>
<path d="M6030 5366 c-129 -22 -232 -76 -321 -169 -59 -61 -131 -198 -133
-252 -1 -34 3 -39 46 -62 150 -79 370 -70 526 22 108 63 203 175 242 288 26
72 25 91 -2 109 -36 24 -129 55 -183 62 -27 4 -61 8 -75 10 -14 2 -59 -2 -100
-8z"/>
<path d="M2635 5029 c-81 -20 -121 -32 -162 -50 -24 -11 -45 -19 -48 -19 -4 0
-37 -20 -74 -45 -74 -48 -211 -188 -211 -216 0 -24 124 -154 189 -198 201
-137 424 -171 650 -100 36 11 83 30 105 41 110 56 240 168 272 236 15 33 15
33 -22 80 -21 26 -47 55 -59 66 -118 108 -210 155 -396 204 -48 12 -194 13
-244 1z"/>
<path d="M6750 5013 c-99 -16 -247 -84 -329 -151 -77 -62 -141 -136 -141 -162
0 -21 81 -114 144 -164 270 -215 658 -210 923 13 68 57 133 133 133 154 0 22
-109 135 -175 181 -131 94 -271 137 -437 135 -51 -1 -104 -4 -118 -6z"/>
</g>
</svg>
